<?xml version="1.0" encoding="UTF-8"?>
<svg width="58px" height="37px" viewBox="0 0 58 37" version="1.1" xmlns="http://www.w3.org/2000/svg" xmlns:xlink="http://www.w3.org/1999/xlink">
    <title>004-rainy copy</title>
    <g id="Page-1" stroke="none" stroke-width="1" fill="none" fill-rule="evenodd">
        <g id="Today-Forecast" transform="translate(-996.000000, -798.000000)" fill-rule="nonzero">
            <g id="004-rainy-copy" transform="translate(996.000000, 798.000000)">
                <path d="M34.6425466,1.53655995 C33.2051089,1.18649662 31.7003588,1 30.1510369,1 C22.2172721,1 15.4689784,5.86943989 12.9667089,12.66532 L12.9667089,12.6660843 C6.44582185,12.7490688 1,17.864623 1,24.3333697 C1,30.7766751 6.43922706,36 13.1488616,36 L39,36 L34.6425466,1.53655995 Z" id="Path" fill="#D4D4D5"></path>
                <path d="M48.0095918,18.2270996 C48.0091443,9.90513516 42.253981,2.94878148 34.5032858,1 C26.7418523,2.95354975 21,9.92564982 21,18.227765 C21,27.9979533 28.95215,35.9258146 38.7899882,36 L48.0363256,36 C52.9869003,36 57,32.0214873 57,27.1137161 C57,22.1417396 52.9011058,18.2011514 48.0095918,18.2270996 Z" id="Path" fill="#EFEDEE"></path>
                <ellipse id="Oval" fill="#FF8E9E" transform="translate(22.357027, 22.153054) rotate(0.171887) translate(-22.357027, -22.153054) " cx="22.3570272" cy="22.1530544" rx="3.30918585" ry="2.55401422"></ellipse>
                <ellipse id="Oval" fill="#FF8E9E" transform="translate(40.287446, 22.215414) rotate(-179.828113) translate(-40.287446, -22.215414) " cx="40.287446" cy="22.215414" rx="3.30918585" ry="2.55401422"></ellipse>
                <path d="M48.8776875,17.7023115 C48.4467656,7.87003415 40.0955586,0 29.8923164,0 C22.0465703,0 14.9984375,4.71974894 12.17275,11.8020188 C5.49855859,12.1811249 0,17.5767147 0,24.39103 C0,29.4360736 3.07671875,33.9844639 7.83826953,35.978575 C8.26930469,36.1591962 8.76898828,35.9653426 8.95454297,35.5456575 C9.13998437,35.1260826 8.94083594,34.6396845 8.50980078,34.4590632 C4.37254297,32.7265111 1.69921875,28.7745677 1.69921875,24.39103 C1.69921875,17.2628881 8.69512891,11.9201173 15.8974375,13.8144346 C15.9716367,13.8339522 16.0461758,13.8433251 16.119582,13.8433251 C16.4939766,13.8433251 16.8369922,13.600512 16.9392852,13.2318816 C17.0617422,12.7909144 16.7937188,12.3369355 16.340707,12.2177343 C15.5767383,12.0168235 14.792832,11.8863749 14.0002031,11.8245138 C16.717707,5.69706624 22.9629023,1.65404033 29.8923164,1.65404033 C39.1623477,1.65404033 46.7526445,8.78835734 47.1763164,17.713559 C46.9923477,17.729548 46.808832,17.7489554 46.6273555,17.7747585 C46.1630156,17.8406995 45.8415234,18.2606052 45.9093789,18.712489 C45.9772344,19.1653653 46.4095156,19.4774276 46.8727227,19.4113762 C51.9045625,18.6967205 56.3007813,22.500903 56.3007813,27.3364348 C56.3007813,31.7528327 52.609625,35.3459597 48.0724844,35.3459597 L12.9534844,35.3459597 C12.4830273,35.3459597 12.0097383,35.3173999 11.5468711,35.2612728 C11.0810586,35.2054765 10.656707,35.5264706 10.598707,35.9797879 C10.540707,36.432995 10.8711484,36.8461742 11.3368477,36.9026322 C11.869043,36.9671397 12.4129063,37 12.9533711,37 L48.0724844,37 C53.5464609,37 58,32.6649808 58,27.3364348 C58,22.2649266 53.9750039,18.0933266 48.8776875,17.7023115 L48.8776875,17.7023115 Z" id="Path" fill="#000000"></path>
                <path d="M25,19.4 L25,18.6 C25,18.26864 24.5522667,18 24,18 C23.4477333,18 23,18.26864 23,18.6 L23,19.4 C23,19.73136 23.4477333,20 24,20 C24.5522667,20 25,19.73136 25,19.4 Z" id="Path" fill="#000000"></path>
                <path d="M40,19.4 L40,18.6 C40,18.26864 39.5522667,18 39,18 C38.4477333,18 38,18.26864 38,18.6 L38,19.4 C38,19.73136 38.4477333,20 39,20 C39.5522667,20 40,19.73136 40,19.4 Z" id="Path" fill="#000000"></path>
                <path d="M31.5,22 C32.5304645,22 33.4810407,21.5521231 33.9217566,20.8589099 C34.1118505,20.5599786 33.94367,20.2017731 33.5461428,20.0589069 C33.1486156,19.9158006 32.6722638,20.0424285 32.4822762,20.3413597 C32.3050538,20.6200528 31.9194407,20.8001155 31.5,20.8001155 C31.0805593,20.8001155 30.6949462,20.6200528 30.5177238,20.3413597 C30.3276298,20.0424285 29.8511716,19.9160406 29.4538572,20.0589069 C29.05633,20.2018531 28.8881495,20.5600586 29.0782434,20.8589099 C29.5189593,21.5521231 30.4695355,22 31.5,22 L31.5,22 Z" id="Path" fill="#000000"></path>
            </g>
        </g>
    </g>
</svg>