<svg id="Capa_1" enable-background="new 0 0 512 512" height="512" viewBox="0 0 512 512" width="512" xmlns="http://www.w3.org/2000/svg"><g><g><g><g><g><path d="m316 100.701c-8.291 0-15-6.709-15-15v-8.701c0-24.814-20.186-45-45-45s-45 20.186-45 45v8.701c0 8.291-6.709 15-15 15s-15-6.709-15-15v-8.701c0-41.353 33.633-77 75-77s75 35.647 75 77v8.701c0 8.291-6.709 15-15 15z" fill="#ffb100"/></g></g></g><g id="Compass_2_"><g><path d="m256 512c-124.072 0-225-100.928-225-225s100.928-225 225-225 225 100.928 225 225-100.928 225-225 225z" fill="#ffcd00"/></g></g><path d="m301 77v8.701c0 8.291 6.709 15 15 15s15-6.709 15-15v-8.701c0-41.353-33.633-77-75-77v32c24.814 0 45 20.186 45 45z" fill="#ff9100"/><path d="m481 287c0-124.072-100.928-225-225-225v450c124.072 0 225-100.928 225-225z" fill="#ffb100"/><g><path d="m256 452c-90.967 0-165-74.019-165-165s74.033-165 165-165 165 74.019 165 165-74.033 165-165 165z" fill="#d9f2ff"/></g><path d="m421 287c0-90.981-74.033-165-165-165v330c90.967 0 165-74.019 165-165z" fill="#c4e1ff"/></g></g><path d="m372.684 170.327c-4.745-4.746-12.066-5.761-17.926-2.486-147.133 82.253-137.166 76.365-139.354 78.552l29.319 45.607 51.894 35.607c2.173-2.172-3.74 7.85 78.553-139.353 3.275-5.859 2.26-13.181-2.486-17.927z" fill="#ff641a"/><path d="m296.617 327.607c2.173-2.172-3.74 7.85 78.553-139.353 3.275-5.859 2.26-13.18-2.486-17.926l-124.232 124.231z" fill="#f03800"/><path d="m136.853 385.747c-3.275 5.859-2.26 13.18 2.486 17.926 2.887 2.887 6.727 4.394 10.611 4.394 2.501 0 5.02-.625 7.314-1.907 147.144-82.259 137.166-76.365 139.353-78.552l-81.213-81.213c-2.172 2.171 3.74-7.852-78.551 139.352z" fill="#87e0fe"/><path d="m139.339 403.673c2.887 2.887 6.727 4.394 10.611 4.394 2.501 0 5.02-.625 7.314-1.907 147.145-82.26 137.166-76.365 139.353-78.552l-40.606-40.608-116.672 116.673c0-.001 0 0 0 0z" fill="#57caff"/></svg>