<?xml version="1.0" encoding="UTF-8"?>
<svg width="37px" height="37px" viewBox="0 0 37 37" version="1.1" xmlns="http://www.w3.org/2000/svg" xmlns:xlink="http://www.w3.org/1999/xlink">
    <title>pin</title>
    <g id="Page-1" stroke="none" stroke-width="1" fill="none" fill-rule="evenodd">
        <g id="Today-Forecast" transform="translate(-582.000000, -262.000000)" fill-rule="nonzero">
            <g id="pin" transform="translate(582.000000, 262.000000)">
                <path d="M12.7699194,27.2841637 L9.71272461,24.2259377 C9.55637898,24.0656688 9.33654928,23.9838141 9.11349523,24.0026651 C8.89194588,24.018649 8.68823798,24.1302494 8.55553766,24.3085092 L0.152927387,35.776767 C-0.100363997,36.1145788 -0.0319359141,36.5938086 0.305762047,36.8471138 C0.577539761,37.0509621 0.951135596,37.0509621 1.22291331,36.8471138 L12.6873041,28.437082 C13.0277965,28.1875757 13.1016702,27.7091343 12.852248,27.3685271 C12.8291043,27.3369894 12.8036677,27.3072436 12.7760098,27.2795764 L12.7699194,27.2841637 Z" id="Path" fill="#CFD8DC"></path>
                <path d="M23.5919494,20.9990968 L16.0096817,13.4244197 C14.7340756,12.4322965 13.144775,11.9297372 11.5300262,12.0079226 C9.41626626,11.934069 7.36264358,12.718266 5.83724764,14.1818448 C4.60585596,15.4120037 4.73323885,17.3132359 6.2163397,19.8341279 C7.61698287,22.0281468 9.2711834,24.0498171 11.1448209,25.8575251 C14.1610658,28.8692592 17.9689045,31.999088 20.7440319,31.999088 C21.5261714,32.0189006 22.2817254,31.7151778 22.8322015,31.1597848 C25.9894775,28.0072319 25.2024332,22.6095306 23.5919494,20.9990968 Z" id="Path" fill="#DFDFDF"></path>
                <path d="M29.7708837,15.0537068 L21.9450331,7.22908941 C21.6394591,6.92363686 21.1440843,6.92363686 20.8384369,7.22908941 L14.5778004,13.4887393 C13.5541824,14.512196 13.6387013,16.7750683 16.9255483,20.0723273 C19.0713898,22.2178307 20.7820909,22.9987006 21.9966836,22.9987006 C22.5588224,23.01858 23.1048939,22.8096633 23.5101739,22.4197052 L29.7708103,16.1600553 C30.0763843,15.8545294 30.0763843,15.3592327 29.7708837,15.0537068 Z" id="Path" fill="#F7F7F7"></path>
                <path d="M36.9421643,13.5378803 C36.8233772,13.2505469 36.543086,13.063121 36.2321794,13.063049 C34.5663516,13.063049 30.908806,11.2620466 28.3240174,8.67741406 C25.7392289,6.09278152 23.9381178,2.43696926 23.9381178,0.769729283 C23.9388382,0.345392002 23.5954435,0.000793538208 23.1710806,0 C22.966499,-0.000358965017 22.7702014,0.0808925123 22.6256976,0.225747761 C19.4876021,3.36516654 18.5071949,8.71890418 23.3941035,13.6055178 C25.2532754,15.6714519 27.8701919,16.8961306 30.6476041,17 C32.9577922,16.9734924 35.1624478,16.0285838 36.774681,14.3738053 C36.9941741,14.1546136 37.060231,13.8248536 36.9421643,13.5378803 Z" id="Path" fill="#DFDFDF"></path>
                <path d="M32.3637741,4.63622593 C29.242516,1.51641856 26.4204385,0 23.7368639,0 C23.3299205,0 23,0.32992051 23,0.73686392 C23,2.93709385 25.0808617,6.8069592 27.6362259,9.36377407 C30.1915901,11.9205889 34.0644259,14 36.2631361,14 C36.6700795,14 37,13.6700795 37,13.2631361 C37,10.5781109 35.4835814,7.75596422 32.3637741,4.63622593 Z" id="Path" fill="#F7F7F7"></path>
                <path d="M30.6468873,17.0000012 C27.8692756,16.8964177 25.2522349,15.6717548 23.393242,13.6055593 C21.3489693,11.7472439 20.1280822,9.15205629 20,6.39249501 C20.0067715,4.06655747 20.9534128,1.8420389 22.6248208,0.224377463 C22.7691834,0.0803884524 22.9649086,-0.000357761289 23.168846,1.19167658e-06 C25.9688613,1.19167658e-06 28.9118705,1.58121638 32.1652162,4.83433079 C35.4185618,8.0874452 37,11.0316207 37,13.8298624 C37.0003554,14.0337808 36.9196737,14.2294877 36.7755993,14.3738369 C35.1629017,16.0288101 32.9576258,16.9737065 30.6468873,17.0000012 Z M23.4869624,1.5458494 C22.2420149,2.8483773 21.5435419,4.57840635 21.5352576,6.38017779 C21.6660052,8.73492755 22.7248084,10.9418707 24.4797796,12.5175383 C28.7597279,16.7986723 33.0028651,15.7660428 35.4540041,13.5101909 C35.3264262,11.2498011 33.855714,8.69891229 31.0772378,5.9206951 C28.2987616,3.14247792 25.7475629,1.67341545 23.4869624,1.5458494 Z" id="Shape" fill="#000000"></path>
                <path d="M36.2631361,14 C34.0644259,14 30.1944915,11.920658 27.6362259,9.36377407 C25.0779604,6.80689012 23,2.93702477 23,0.73686392 C23,0.32992051 23.3299205,0 23.7368639,0 C24.1438073,0 24.4737278,0.32992051 24.4737278,0.73686392 C24.4737278,2.33583168 26.2009059,5.84317131 28.6795926,8.32040737 C31.1582793,10.7976434 34.665688,12.5262722 36.2631361,12.5262722 C36.6700795,12.5262722 37,12.8561927 37,13.2631361 C37,13.6700795 36.6700795,14 36.2631361,14 Z" id="Path" fill="#000000"></path>
                <path d="M22.0013845,22.9987106 C20.7860778,22.9987106 19.074371,22.2167046 16.9272681,20.0741239 C13.6384889,16.7898014 13.5539203,14.5173874 14.5781401,13.4945555 L20.8424569,7.23872737 C21.1428516,6.92810963 21.638591,6.91945895 21.9497036,7.21951994 C22.2608163,7.51958093 22.2694053,8.01457527 21.9689371,8.32526632 C21.9626239,8.33179098 21.9562372,8.33816901 21.9497036,8.34447374 L15.6853869,14.6003018 C15.3721454,14.9131189 15.5194063,16.4567505 18.0345149,18.9684509 C20.5496234,21.4801512 22.0906513,21.6272126 22.4085911,21.3143956 L28.6729079,15.0585675 C28.9839471,14.7585065 29.4796865,14.7671572 29.7801547,15.0777749 C30.0732818,15.3808416 30.0732818,15.8612471 29.7801547,16.1643139 L23.5158379,22.420142 C23.1102463,22.8097154 22.5637804,23.0185045 22.0013845,22.9987106 Z" id="Path" fill="#000000"></path>
                <path d="M20.7453733,31.9990925 C17.9632519,31.9990925 14.160154,28.8707309 11.1428766,25.8574823 C9.27023335,24.0499734 7.617031,22.0287847 6.21725947,19.83553 C4.73215769,17.3146186 4.60622448,15.4118806 5.83803764,14.1832035 C7.34866738,12.7387871 9.37376738,11.9557912 11.4645006,12.0077022 L11.5267205,12.0077022 C13.1411687,11.9306524 14.7298756,12.4337127 16.0048517,13.4257015 C16.2958278,13.7265861 16.2875081,14.2061408 15.9862212,14.4967995 C15.6922586,14.7802857 15.2262843,14.7802857 14.9323927,14.4967995 C13.9344555,13.8086778 12.7381255,13.4665343 11.5267916,13.5227061 L11.4676293,13.5227061 C9.77809051,13.4800269 8.13932319,14.1018929 6.90452347,15.2543014 C6.05498979,16.1027008 6.77105274,17.7963748 7.5203945,19.0705006 C8.856595,21.152406 10.4317913,23.0711932 12.2139134,24.7879467 C16.7952231,29.3631391 20.4526195,31.3931335 21.7603055,30.0903183 C23.7479313,27.873345 24.0555468,24.6211357 22.5188202,22.0716769 C22.2278441,21.7707923 22.2361638,21.2912376 22.5374507,21.000579 C22.8314133,20.7170927 23.2973876,20.7170927 23.5912792,21.000579 C25.2023142,22.6109541 25.9896279,28.008768 22.8327644,31.1614162 C22.282171,31.7157483 21.5269984,32.0188343 20.7453733,31.9990925 Z" id="Path" fill="#000000"></path>
                <path d="M0.764699363,37 C0.34238344,37 0,36.6575844 0,36.2352287 C0,36.0697565 0.0536945554,35.9087294 0.152911197,35.7763803 L8.56431743,24.3051698 C8.8180941,23.9676294 9.29747393,23.8997342 9.63505425,24.1535347 C9.97198938,24.4069051 10.0403084,24.8852545 9.78782208,25.2228666 L4.32036859,32.6791535 L11.7759544,27.2111859 C12.1136064,26.957457 12.5929145,27.0255673 12.8466195,27.3631794 C13.1003245,27.7008632 13.0322206,28.1802164 12.6946403,28.4339452 C12.6942818,28.434232 12.6939234,28.4344471 12.693565,28.4347339 L1.22343295,36.846931 C1.09109631,36.9463721 0.930156017,37 0.764699363,37 Z" id="Path" fill="#000000"></path>
            </g>
        </g>
    </g>
</svg>